<svg width="133" height="133" viewBox="0 0 133 133" fill="none" xmlns="http://www.w3.org/2000/svg">
<g clip-path="url(#clip0_1_14)">
<path fill-rule="evenodd" clip-rule="evenodd" d="M14.88 89.71L44.6 124.4C52.97 134.16 67.49 135.72 77.71 128.26C69.38 131.96 59.25 130.63 52.15 124.09L14.88 89.71Z" fill="#F47E2B"/>
<path fill-rule="evenodd" clip-rule="evenodd" d="M43.23 14.88L8.53999 44.6C-1.22001 52.97 -2.78001 67.49 4.67999 77.71C0.979985 69.38 2.30999 59.25 8.84999 52.15L43.23 14.88Z" fill="#239ED9"/>
<path fill-rule="evenodd" clip-rule="evenodd" d="M118.07 43.23L88.34 8.54C79.97 -1.22 65.45 -2.77 55.23 4.69C63.56 0.990001 73.69 2.32 80.78 8.86L118.07 43.23Z" fill="#B6D333"/>
<path fill-rule="evenodd" clip-rule="evenodd" d="M89.71 118.07L124.4 88.34C134.16 79.97 135.71 65.45 128.26 55.23C131.96 63.56 130.63 73.69 124.09 80.79L89.71 118.07Z" fill="#24B04C"/>
<path fill-rule="evenodd" clip-rule="evenodd" d="M45.36 100.62L44.79 101.21C44.32 100.75 43.86 100.53 43.41 100.53C43.12 100.53 42.88 100.62 42.67 100.81C42.47 101 42.36 101.22 42.36 101.47C42.36 101.69 42.44 101.9 42.61 102.11C42.78 102.32 43.13 102.56 43.67 102.84C44.32 103.18 44.77 103.51 45.01 103.82C45.24 104.14 45.36 104.5 45.36 104.9C45.36 105.46 45.16 105.94 44.77 106.33C44.37 106.72 43.88 106.92 43.28 106.92C42.88 106.92 42.51 106.83 42.15 106.66C41.79 106.49 41.49 106.25 41.26 105.95L41.82 105.32C42.27 105.83 42.75 106.08 43.26 106.08C43.61 106.08 43.91 105.97 44.16 105.74C44.41 105.51 44.53 105.25 44.53 104.94C44.53 104.69 44.45 104.46 44.28 104.27C44.11 104.08 43.74 103.83 43.17 103.54C42.55 103.22 42.13 102.91 41.91 102.6C41.69 102.29 41.57 101.94 41.57 101.54C41.57 101.02 41.75 100.59 42.1 100.25C42.46 99.91 42.91 99.74 43.45 99.74C44.08 99.7 44.72 100.01 45.36 100.62ZM47.22 97.06C47.42 97.06 47.59 97.13 47.73 97.28C47.87 97.42 47.94 97.6 47.94 97.8C47.94 98 47.87 98.17 47.73 98.31C47.59 98.45 47.42 98.53 47.22 98.53C47.02 98.53 46.85 98.46 46.71 98.31C46.57 98.17 46.5 98 46.5 97.8C46.5 97.6 46.57 97.43 46.71 97.28C46.86 97.13 47.02 97.06 47.22 97.06ZM46.78 99.87H47.66V106.73H46.78V99.87ZM52.96 100.62L52.39 101.21C51.92 100.75 51.46 100.53 51.01 100.53C50.72 100.53 50.69 100.42 50.48 100.6C50.28 100.79 49.96 101.22 49.96 101.47C49.96 101.69 50.04 101.9 50.21 102.11C50.38 102.32 50.73 102.56 51.27 102.84C51.92 103.18 52.37 103.51 52.61 103.82C52.84 104.14 52.96 104.5 52.96 104.9C52.96 105.46 52.76 105.94 52.37 106.33C51.97 106.72 51.48 106.92 50.88 106.92C50.48 106.92 50.11 106.83 49.75 106.66C49.39 106.49 49.09 106.25 48.86 105.95L49.42 105.32C49.87 105.83 50.35 106.08 50.86 106.08C51.21 106.08 51.51 105.97 51.76 105.74C52.01 105.51 52.13 105.25 52.13 104.94C52.13 104.69 52.05 104.46 51.88 104.27C51.71 104.08 51.34 103.83 50.77 103.54C50.15 103.22 49.73 102.91 49.51 102.6C49.29 102.29 49.17 101.94 49.17 101.54C49.17 101.02 49.35 100.59 49.7 100.25C50.06 99.91 50.51 99.74 51.05 99.74C51.68 99.7 52.32 100.01 52.96 100.62ZM55.28 97.31H56.16V99.87H57.55V100.63H56.16V106.73H55.28V100.63H54.08V99.87H55.28V97.31ZM64.68 104.46L65.42 104.85C65.17 105.33 64.89 105.71 64.57 106C64.25 106.29 63.89 106.51 63.49 106.67C63.09 106.82 62.64 106.9 62.13 106.9C61.01 106.9 60.13 106.53 59.5 105.8C58.87 105.07 58.55 104.24 58.55 103.32C58.55 102.45 58.82 101.68 59.36 101C60.04 100.14 60.95 99.7 62.09 99.7C63.26 99.7 64.2 100.14 64.9 101.03C65.4 101.65 65.65 102.43 65.66 103.37H59.46C59.48 104.16 59.73 104.81 60.23 105.32C60.73 105.83 61.34 106.08 62.06 106.08C62.41 106.08 62.75 106.02 63.08 105.9C63.41 105.78 63.9 105.41 64.14 105.21C64.37 105.01 64.41 104.9 64.68 104.46ZM64.69 102.61C64.57 102.14 64.4 101.76 64.17 101.48C63.94 101.2 63.64 100.97 63.27 100.8C62.9 100.63 62.51 100.54 62.1 100.54C61.42 100.54 60.84 100.76 60.35 101.19C59.99 101.51 59.73 101.98 59.54 102.61H64.69ZM67.28 99.87H68.16V101.06C68.47 100.62 68.78 100.3 69.11 100.1C69.56 99.84 70.02 99.71 70.52 99.71C70.85 99.71 71.17 99.77 71.47 99.91C71.77 100.04 72.01 100.21 72.2 100.43C72.39 100.65 72.55 100.96 72.69 101.36C72.98 100.82 73.35 100.41 73.79 100.13C74.23 99.85 74.7 99.71 75.21 99.71C75.68 99.71 76.1 99.83 76.47 100.07C76.83 100.31 77.1 100.64 77.28 101.07C77.46 101.5 77.54 102.14 77.54 103V106.74H76.64V103C76.64 102.26 76.59 101.76 76.48 101.48C76.37 101.2 76.2 100.98 75.94 100.81C75.69 100.64 75.38 100.56 75.03 100.56C74.6 100.56 74.21 100.69 73.86 100.94C73.5 101.19 73.25 101.53 73.08 101.95C72.92 102.37 72.83 103.07 72.83 104.05V106.73H71.95V103.22C71.95 102.39 71.9 101.83 71.79 101.53C71.69 101.23 71.51 101 71.25 100.82C70.99 100.64 70.69 100.55 70.34 100.55C69.93 100.55 69.55 100.67 69.19 100.92C68.83 101.17 68.57 101.5 68.4 101.91C68.23 102.33 68.14 102.96 68.14 103.82V106.72L67.47 106.51V99.65L67.28 99.87ZM86.23 99.87V106.73H85.35V105.55C84.98 106 84.57 106.34 84.11 106.56C83.65 106.78 83.15 106.9 82.6 106.9C81.63 106.9 80.8 106.55 80.12 105.85C79.43 105.15 79.09 104.29 79.09 103.29C79.09 102.31 79.44 101.46 80.13 100.76C80.82 100.06 81.65 99.71 82.63 99.71C83.19 99.71 83.7 99.83 84.16 100.07C84.61 100.31 85.01 100.66 85.36 101.14V99.88H86.23V99.87ZM82.7 100.56C82.21 100.56 81.75 100.68 81.34 100.92C80.92 101.16 80.6 101.5 80.35 101.93C80.1 102.36 79.98 102.83 79.98 103.31C79.98 103.79 80.1 104.25 80.35 104.69C80.6 105.13 80.93 105.47 81.35 105.71C81.77 105.96 82.22 106.08 82.69 106.08C83.17 106.08 83.63 105.96 84.06 105.72C84.49 105.48 84.82 105.15 85.06 104.73C85.29 104.32 85.41 103.85 85.41 103.33C85.41 102.54 85.15 101.88 84.63 101.35C84.1 100.82 83.46 100.56 82.7 100.56ZM91.69 100.62L91.12 101.21C90.65 100.75 90.19 100.53 89.74 100.53C89.45 100.53 89.21 100.62 89 100.81C88.8 101 88.69 101.22 88.69 101.47C88.69 101.69 88.77 101.9 88.94 102.11C89.11 102.32 89.46 102.56 90 102.84C90.65 103.18 91.1 103.51 91.34 103.82C91.57 104.14 91.69 104.5 91.69 104.9C91.69 105.46 91.49 105.94 91.1 106.33C90.7 106.72 90.21 106.92 89.61 106.92C89.21 106.92 88.84 106.83 88.48 106.66C88.12 106.49 87.82 106.25 87.59 105.95L88.15 105.32C88.6 105.83 89.08 106.08 89.59 106.08C89.94 106.08 90.24 105.97 90.49 105.74C90.74 105.51 90.86 105.25 90.86 104.94C90.86 104.69 90.78 104.46 90.61 104.27C90.44 104.08 90.07 103.83 89.5 103.54C88.88 103.22 88.46 102.91 88.24 102.6C88.02 102.29 87.9 101.94 87.9 101.54C87.9 101.02 88.08 100.59 88.43 100.25C88.79 99.91 89.24 99.74 89.78 99.74C90.41 99.7 91.04 100.01 91.69 100.62Z" fill="#33425A"/>
<path fill-rule="evenodd" clip-rule="evenodd" d="M34.6 48.97C36.75 48.97 38.78 49.39 40.68 50.22C42.59 51.05 44.25 52.18 45.67 53.6C47.09 55.02 48.21 56.68 49.05 58.59C49.88 60.5 50.3 62.54 50.3 64.73C50.3 65.91 50.18 67.04 49.94 68.14L49.88 68.26H34.42L30.53 62.06H42.09C41.52 60.36 40.58 58.96 39.26 57.86C37.94 56.77 36.39 56.22 34.61 56.22C33.52 56.22 32.48 56.44 31.51 56.89C30.54 57.34 29.7 57.92 28.99 58.67C28.28 59.42 27.72 60.31 27.32 61.34C26.91 62.37 26.71 63.49 26.71 64.71C26.71 65.64 26.89 66.6 27.26 67.59C27.62 68.58 28.15 69.48 28.84 70.29C29.53 71.1 30.36 71.77 31.33 72.32C32.3 72.87 33.4 73.14 34.61 73.14C35.7 73.14 36.71 72.99 37.62 72.68C38.53 72.38 39.39 71.7 40.21 70.64L40.27 70.58L40.39 70.64L47.45 73.74L47.33 73.87C45.87 75.91 44.22 77.3 41.97 78.45C39.72 79.6 37.13 80.37 34.61 80.37C32.42 80.37 30.36 79.96 28.44 79.15C26.51 78.34 24.84 77.22 23.42 75.8C22 74.38 20.88 72.72 20.04 70.81C19.21 68.9 18.79 66.88 18.79 64.73C18.79 62.54 19.21 60.49 20.04 58.59C20.87 56.68 22 55.02 23.42 53.6C24.84 52.18 26.51 51.06 28.44 50.22C30.35 49.38 32.41 48.97 34.6 48.97ZM86.3 49.46V76.4C86.14 79.43 86.27 79.47 84.78 82.76C83.89 84.73 82.7 86.43 81.22 87.87C79.74 89.31 78.01 90.44 76.02 91.28C74.03 92.11 71.92 92.53 69.69 92.53C66.69 92.53 63.9 91.79 61.33 90.31C58.76 88.83 56.72 86.81 55.22 84.26L55.16 84.14L55.22 84.08L61.91 81.16C62.32 81.89 62.83 82.53 63.46 83.08C64.09 83.63 64.76 84.07 65.47 84.42C66.18 84.76 66.91 85.03 67.66 85.21C68.41 85.39 69.13 85.48 69.82 85.48C70.87 85.48 71.91 85.26 72.92 84.81C73.93 84.36 74.84 83.72 75.63 82.85C76.42 82 77.05 80.98 77.52 79.81C77.99 78.63 78.22 77.31 78.22 75.85V64.68C78.22 63.5 77.99 62.39 77.52 61.36C77.05 60.33 76.43 59.43 75.63 58.68C74.84 57.92 73.93 57.32 72.89 56.88C71.86 56.43 70.75 56.21 69.58 56.21C68.4 56.21 67.3 56.43 66.27 56.88C65.24 57.34 64.33 57.93 63.56 58.69C62.79 59.44 62.18 60.34 61.74 61.39C61.29 62.42 61.07 63.54 61.07 64.73C61.07 65.92 61.29 67.02 61.74 68.03C62.19 69.05 62.79 69.96 63.56 70.73C64.33 71.51 65.23 72.12 66.27 72.57C67.3 73.02 68.41 73.24 69.58 73.24C70.84 73.24 71.93 73.02 72.86 72.57H72.92L72.98 72.63L76.02 78L75.96 78.06C73.97 79.67 71.52 80.47 68.6 80.47C66.41 80.47 64.34 80.05 62.4 79.22C60.45 78.39 58.77 77.26 57.35 75.84C55.93 74.42 54.81 72.75 53.97 70.82C53.14 68.89 52.72 66.86 52.72 64.71C52.72 62.52 53.14 60.47 53.97 58.57C54.8 56.66 55.93 55 57.35 53.58C58.77 52.16 60.45 51.04 62.4 50.2C64.35 49.37 66.41 48.95 68.6 48.95C72.74 48.95 75.94 50.5 78.21 53.59V49.43H86.3V49.46ZM104.91 61.8C106.25 62.25 107.47 62.7 108.59 63.17C109.71 63.64 110.68 64.19 111.51 64.84C112.34 65.49 112.99 66.27 113.46 67.18C113.93 68.09 114.16 69.18 114.16 70.43V70.49C114.16 73.57 113.14 75.98 111.09 77.73C109.04 79.47 106.17 80.35 102.48 80.35C100.17 80.35 97.9 79.95 95.67 79.15C93.44 78.35 91.35 77.21 89.41 75.74L89.35 75.68L89.41 75.62L93.55 69.09L93.61 69.15C94.83 70.45 96.2 71.43 97.75 72.1C99.29 72.77 101.14 72.89 102.89 72.89C105.28 72.89 106.27 72.33 106.27 70.8C106.27 70.07 105.88 69.52 105.11 69.16C104.34 68.8 103.43 68.45 102.37 68.13C102.17 68.05 101.97 68 101.79 67.98C101.61 67.96 101.41 67.91 101.21 67.83C99.99 67.51 98.78 67.15 97.56 66.78C96.34 66.39 95.25 65.87 94.28 65.2C93.31 64.53 92.51 63.68 91.88 62.66C91.25 61.63 90.94 60.3 90.94 58.69V58.57C90.94 57.15 91.2 55.85 91.73 54.69C92.26 53.51 93.01 52.5 93.98 51.65C94.95 50.81 96.13 50.15 97.51 49.68C98.89 49.21 100.41 48.98 102.07 48.98C104.02 48.98 105.98 49.27 107.97 49.86C109.96 50.45 111.8 51.31 113.5 52.44V52.56L109.79 59.31L109.73 59.25C108.8 58.32 107.64 57.58 106.26 57.03C104.88 56.48 103.42 56.21 101.88 56.21C101.6 56.21 101.27 56.23 100.91 56.27C100.55 56.31 100.21 56.41 99.91 56.57C99.61 56.73 99.35 56.95 99.15 57.21C98.95 57.47 98.85 57.85 98.85 58.34C98.85 58.7 99.01 59.04 99.34 59.34C99.66 59.64 100.08 59.93 100.59 60.19C101.1 60.45 101.66 60.71 102.29 60.95C102.92 61.19 103.54 61.42 104.15 61.62C104.27 61.62 104.4 61.64 104.55 61.68C104.66 61.72 104.79 61.76 104.91 61.8Z" fill="#33425A"/>
</g>
<defs>
<clipPath id="clip0_1_14">
<rect width="132.94" height="132.94" fill="white"/>
</clipPath>
</defs>
</svg>
